<?xml version="1.0" encoding="UTF-8" standalone="no"?>
<svg
   xmlns:osb="http://www.openswatchbook.org/uri/2009/osb"
   xmlns:dc="http://purl.org/dc/elements/1.1/"
   xmlns:cc="http://creativecommons.org/ns#"
   xmlns:rdf="http://www.w3.org/1999/02/22-rdf-syntax-ns#"
   xmlns:svg="http://www.w3.org/2000/svg"
   xmlns="http://www.w3.org/2000/svg"
   xmlns:sodipodi="http://sodipodi.sourceforge.net/DTD/sodipodi-0.dtd"
   xmlns:inkscape="http://www.inkscape.org/namespaces/inkscape"
   version="1.1"
   id="Calque_1"
   x="0px"
   y="0px"
   width="100px"
   height="100px"
   viewBox="0 0 100 100"
   enable-background="new 0 0 100 100"
   xml:space="preserve"
   inkscape:version="0.48.3.1 r9886"
   sodipodi:docname="headphones-filled-paused.svg"
   inkscape:export-filename="/home/todd/Downloads/icon_16097/icon_16097.32.png"
   inkscape:export-xdpi="28.799999"
   inkscape:export-ydpi="28.799999"><metadata
   id="metadata3067"><rdf:RDF><cc:Work
       rdf:about=""><dc:format>image/svg+xml</dc:format><dc:type
         rdf:resource="http://purl.org/dc/dcmitype/StillImage" /><dc:title /></cc:Work></rdf:RDF></metadata><defs
   id="defs3065"><linearGradient
     id="linearGradient3800"
     osb:paint="solid"><stop
       style="stop-color:#000000;stop-opacity:1;"
       offset="0"
       id="stop3802" /></linearGradient></defs><sodipodi:namedview
   pagecolor="#ffffff"
   bordercolor="#666666"
   borderopacity="1"
   objecttolerance="10"
   gridtolerance="10"
   guidetolerance="10"
   inkscape:pageopacity="0"
   inkscape:pageshadow="2"
   inkscape:window-width="1920"
   inkscape:window-height="1030"
   id="namedview3063"
   showgrid="false"
   inkscape:zoom="1.86"
   inkscape:cx="29.787234"
   inkscape:cy="39.399561"
   inkscape:window-x="0"
   inkscape:window-y="0"
   inkscape:window-maximized="1"
   inkscape:current-layer="g3055" />
<g
   id="g3055">
	<path
   d="m 35.859,58.497 -5.13,0 c -1.652,0 -3.003,1.373 -3.003,3.053 l 0,35.397 c 0,1.68 1.352,3.053 3.003,3.053 l 5.13,0 c 1.652,0 3.003,-1.373 3.003,-3.053 l 0,-35.397 c 0,-1.68 -1.351,-3.053 -3.003,-3.053 z"
   id="path3057"
   inkscape:connector-curvature="0"
   sodipodi:nodetypes="sssssssss" />
	<path
   d="m 69.27,58.497 -5.129,0 c -1.652,0 -3.004,1.373 -3.004,3.053 l 0,35.397 c 0,1.68 1.352,3.053 3.004,3.053 l 5.129,0 c 1.652,0 3.004,-1.373 3.004,-3.053 l 0,-35.397 C 72.273,59.87 70.922,58.497 69.27,58.497 z"
   id="path3059"
   inkscape:connector-curvature="0"
   sodipodi:nodetypes="ssssssscs" />
	<path
   d="m 100,36.71 -1.883,-0.696 -3.808,10.636 -2.398,-0.888 0,-0.71 0,-3.689 C 91.91,18.169 73.502,0 50,0 26.499,0 8.089,18.169 8.089,41.363 l 0,3.689 0,0.71 L 5.691,46.65 1.882,36.015 0,36.71 l 3.809,10.636 -0.803,0.297 4.444,12.41 0.804,-0.299 1.905,5.318 3.646,5.829 0,21.552 5.568,1.886 3.713,3.774 3.712,0 0,-37.73 -3.712,0 -1.913,1.943 C 17.065,62.112 13.659,60.263 13.06,57.976 L 14.427,57.47 10.69,47.035 c 3.069,-0.254 5.033,-2.408 5.033,-5.674 C 15.722,22.519 30.778,7.757 50,7.757 c 19.222,0 34.278,14.762 34.278,33.606 0,3.212 2.006,5.409 5.031,5.673 l -3.736,10.436 1.367,0.506 c -0.6,2.286 -4.004,4.136 -8.113,4.35 l -1.912,-1.943 -3.711,0 0,37.73 3.711,0 3.176,-3.228 0,2.356 4.787,0 0,-4.342 1.318,-0.447 0,-21.523 3.551,-5.657 1.994,-5.521 0.809,0.301 4.445,-12.41 -0.803,-0.297 z m -80.689,27.467 -5.506,1.866 0,1.102 -1.802,-2.872 -1.867,-5.213 1.03,-0.381 c 0.82,2.734 3.989,4.854 8.145,5.498 z M 50,5.722 c -33.333333,62.852 -16.666667,31.426 0,0 z m 34.193,85.265 c -56.128667,6.008667 -28.064333,3.004333 0,0 z m 3.805,-26.715 -1.803,2.872 0,-1.102 -5.506,-1.866 c 4.154,-0.644 7.324,-2.764 8.145,-5.498 l 1.031,0.381 z"
   id="path3061"
   inkscape:connector-curvature="0"
   sodipodi:nodetypes="ccccccssccccccccccccccccccccccsscccccccccccccccccccccccccccccccccccccc" />
<g
   id="g3806"
   transform="matrix(0.63990062,0,0,0.63990062,36.753425,36.805481)"><path
     transform="translate(100.70922,32.978723)"
     d="m -4.2553196,43.203308 c 0,11.456971 -9.2877094,20.744681 -20.7446804,20.744681 -11.456971,0 -20.74468,-9.28771 -20.74468,-20.744681 0,-11.456971 9.287709,-20.74468 20.74468,-20.74468 11.456971,0 20.7446804,9.287709 20.7446804,20.74468 z"
     sodipodi:ry="20.74468"
     sodipodi:rx="20.74468"
     sodipodi:cy="43.203308"
     sodipodi:cx="-25"
     id="path3798"
     style="fill:#ffffff;fill-opacity:1;stroke:#000000;stroke-width:4;stroke-miterlimit:4;stroke-opacity:1;stroke-dasharray:none"
     sodipodi:type="arc" /><g
     transform="matrix(0.70496023,0,0,0.70496023,92.388056,46.548058)"
     id="g3794"><rect
       style="fill:#000000;fill-opacity:1"
       id="rect2985"
       width="8.0378237"
       height="39.834511"
       x="-19.177301"
       y="21.985815"
       ry="4.3735223" /><rect
       style="fill:#000000;fill-opacity:1"
       id="rect2985-9"
       width="8.0378237"
       height="39.834511"
       x="-35.815601"
       y="21.985489"
       ry="4.3735223" /></g></g></g>
</svg>